<svg fill="#262626" height="20" viewBox="0 0 140 20" xmlns="http://www.w3.org/2000/svg">
								<path d="M100.869 20V15.6152C103.934 15.6152 106.421 13.1096 106.421 10.0224C106.421 6.93512 103.934 4.42953 100.869 4.42953V0C106.332 0 110.818 4.47427 110.818 10.0224C110.818 15.5257 106.377 20 100.869 20Z"></path>
								<path d="M7.46191 20V15.6152C10.5266 15.6152 13.0139 13.1096 13.0139 10.0224C13.0139 6.93512 10.5266 4.42953 7.46191 4.42953V0C12.9251 0 17.4112 4.47427 17.4112 10.0224C17.3667 15.5257 12.9251 20 7.46191 20Z"></path>
								<path d="M53.5215 0V4.38479C50.4568 4.38479 47.9695 6.89038 47.9695 9.97763C47.9695 13.0649 50.4568 15.5705 53.5215 15.5705V19.9553C48.0583 19.9553 43.5723 15.481 43.5723 9.93289C43.6167 4.47427 48.0583 0 53.5215 0Z"></path>
								<path d="M87.8111 10.0224H83.4583C83.4583 6.93512 80.971 4.42953 77.9063 4.42953C74.8416 4.42953 72.3542 6.93512 72.3542 10.0224H67.957C67.957 4.47427 72.3987 0 77.8619 0C83.3695 0 87.8111 4.47427 87.8111 10.0224Z"></path>
								<path opacity="1.0" d="M67.957 10.0225H72.3098C72.3098 13.1097 74.7971 15.6153 77.8619 15.6153C80.9266 15.6153 83.4139 13.1097 83.4139 10.0225H87.7667C87.7667 15.5258 83.325 20.0448 77.8174 20.0448C72.3987 20.0001 67.957 15.5258 67.957 10.0225Z"></path>
								<path d="M131.25 20H116.326V0H131.25V4.38479H120.679V15.6152H131.25V20Z"></path>
								<path opacity="1.0" d="M131.205 7.78516H120.679V12.1699H131.205V7.78516Z"></path>
								<path opacity="1.0" d="M37.9761 20H23.0522V0H37.9761V4.38479H27.4495V15.6152H37.9761V20Z"></path>
								<path opacity="1.0" d="M7.46193 20H0V0H7.46193V4.38479H4.35279V15.6152H7.46193V20Z"></path>
								<path opacity="1.0" d="M100.869 20H93.4072V0H100.869V4.38479H97.8044V15.6152H100.869V20Z"></path>
								<path opacity="1.0" d="M58.6738 7.87472L62.5824 5.8613C61.0278 2.41611 57.5634 0 53.5215 0V4.38479C55.8755 4.38479 57.8299 5.8613 58.6738 7.87472Z"></path>
								<path opacity="1.0" d="M58.6738 12.125C57.8299 14.1832 55.8311 15.6149 53.5215 15.6149V19.9997C57.5189 19.9997 61.0278 17.5836 62.5824 14.0937L58.6738 12.125Z"></path>
								<path d="M37.9317 7.78516H23.0522V12.1699H37.9317V7.78516Z"></path>
								<path d="M137.823 2.10291C138.134 2.10291 138.312 1.96868 138.312 1.74497C138.312 1.47651 138.134 1.34228 137.823 1.34228H137.468V2.10291H137.823ZM137.068 1.02908H137.823C138.312 1.02908 138.623 1.2528 138.623 1.70022C138.623 2.05817 138.445 2.23714 138.134 2.32662L138.756 3.31096H138.356L137.735 2.37136H137.424V3.31096H137.068V1.02908ZM139.689 2.19239C139.689 1.07383 138.889 0.268456 137.779 0.268456C136.713 0.268456 135.869 1.07383 135.869 2.19239C135.869 3.31096 136.713 4.11633 137.779 4.11633C138.889 4.11633 139.689 3.31096 139.689 2.19239ZM135.603 2.19239C135.603 0.98434 136.58 0 137.779 0C139.023 0 139.955 0.98434 139.955 2.19239C139.955 3.44519 138.978 4.38479 137.779 4.38479C136.58 4.38479 135.603 3.44519 135.603 2.19239Z"></path>
							</svg>